<svg xmlns="http://www.w3.org/2000/svg" xmlns:xlink="http://www.w3.org/1999/xlink" version="1.1" x="0px" y="0px" viewBox="0 0 96 124.75" enable-background="new 0 0 96 99.8" xml:space="preserve"><g><path fill="#000000" d="M83.6,73L81,75.9l2.5,2.3H67.4c-1,0.8-2,1.6-3.1,2.2c-1.4,0.9-2.8,1.6-4.2,2.2h24l-2.9,2.9l2.4,2.7l7.7-7.8   L83.6,73z"/><path fill="#000000" d="M18.1,47.6l-0.9-2.3c-2.6,11.3,1.4,23.1,10.2,30.4h8c-11-5.4-16.7-17.7-13.9-29.4L18.1,47.6z"/><path fill="#000000" d="M29,41.6l-1.6-3.5L24,39.6c6.4-11.7,20.9-16.8,33.4-11.4c11.9,5.2,17.9,18.1,14.9,30.3l3.1-1.2l1,2.7   c1-3.6,1.2-7.3,0.8-11c6.8-2.5,11.5-9,11.5-16.4c0-9.6-7.8-17.4-17.4-17.4c-2.1,0-4.1,0.4-6.1,1.1l1.2-3.5l-3.4-1.4l-3.5,10.4   l10.2,3.4l1-3.7l-3.2-1l-0.1-0.2c1.3-0.4,2.6-0.6,3.9-0.6c7.1,0,12.9,5.8,12.9,12.9c0,5.2-3.1,9.8-7.8,11.8   c-2.3-8.7-8.4-16.4-17.3-20.3C44.4,17.8,27.3,23.9,19.9,38l-1.4-3.7L15,35.4l4,10.2L29,41.6z"/><path fill="#000000" d="M62.9,78.2c4.5-2.7,8.2-6.6,10.9-11.5l1.4,3.6l3.5-1.1l-4-10.2l-10,3.9l1.6,3.5l3.6-1.5c0,0,0,0.1-0.1,0.1   c0,0,0,0,0,0c-0.1,0.2-0.3,0.4-0.4,0.7c0,0,0,0.1-0.1,0.1c-0.1,0.2-0.3,0.4-0.4,0.7c0,0-0.1,0.1-0.1,0.1c-0.1,0.2-0.3,0.4-0.4,0.6   c0,0,0,0,0,0.1c-0.1,0.2-0.3,0.4-0.4,0.6c0,0,0,0.1-0.1,0.1c-0.2,0.2-0.3,0.4-0.5,0.6c0,0-0.1,0.1-0.1,0.1   c-0.2,0.2-0.3,0.4-0.5,0.6c0,0,0,0-0.1,0.1c-0.2,0.2-0.3,0.4-0.5,0.6c0,0,0,0-0.1,0.1c-0.2,0.2-0.4,0.4-0.5,0.6   c0,0-0.1,0.1-0.1,0.1c-0.2,0.2-0.4,0.4-0.6,0.5c0,0,0,0-0.1,0.1c-0.2,0.2-0.4,0.3-0.6,0.5c0,0,0,0,0,0c-0.2,0.2-0.4,0.3-0.6,0.5   c0,0-0.1,0.1-0.1,0.1c-0.2,0.2-0.4,0.3-0.6,0.5c0,0-0.1,0-0.1,0.1c-0.2,0.2-0.4,0.3-0.6,0.5c0,0,0,0,0,0c-0.2,0.2-0.4,0.3-0.7,0.4   c0,0-0.1,0-0.1,0.1c-0.2,0.1-0.4,0.3-0.6,0.4c0,0-0.1,0-0.1,0.1c-0.5,0.3-0.9,0.5-1.4,0.8c0,0-0.1,0-0.1,0   c-0.2,0.1-0.5,0.2-0.7,0.4c0,0-0.1,0-0.1,0c-0.5,0.2-1,0.5-1.5,0.7c0,0,0,0-0.1,0c-0.2,0.1-0.5,0.2-0.7,0.3c0,0-0.1,0-0.1,0   c-0.5,0.2-1,0.4-1.5,0.5c0,0,0,0,0,0c-0.3,0.1-0.5,0.1-0.8,0.2c0,0-0.1,0-0.1,0c-0.3,0.1-0.5,0.1-0.8,0.2c0,0,0,0,0,0   c-0.3,0.1-0.5,0.1-0.8,0.2c0,0,0,0,0,0c-0.3,0.1-0.5,0.1-0.8,0.1c0,0-0.1,0-0.1,0c-0.3,0-0.5,0.1-0.8,0.1c0,0,0,0,0,0   c-0.3,0-0.6,0.1-0.8,0.1c0,0,0,0,0,0c0,0-3.3,0-5.1,0H31H4.8v2.2v2.2h41.2h3.9c3-0.2,6.1-1,8.9-2.2c1.5-0.6,2.9-1.4,4.2-2.2H62.9z"/><path fill="#000000" d="M45.9,82.7C45.3,82.7,46.6,82.7,45.9,82.7L45.9,82.7z"/></g><text x="0" y="114.8" fill="#000000" font-size="5px" font-weight="bold" font-family="'Helvetica Neue', Helvetica, Arial-Unicode, Arial, Sans-serif">Created by Björn Andersson</text><text x="0" y="119.8" fill="#000000" font-size="5px" font-weight="bold" font-family="'Helvetica Neue', Helvetica, Arial-Unicode, Arial, Sans-serif">from the Noun Project</text></svg>